<?xml version="1.0" encoding="UTF-8"?>
<svg version="1.1" xmlns="http://www.w3.org/2000/svg" width="500" height="500">
<path d="M0 0 C165 0 330 0 500 0 C500 165 500 330 500 500 C335 500 170 500 0 500 C0 335 0 170 0 0 Z " fill="#7ED857" transform="translate(0,0)"/>
<path d="M0 0 C3.68745115 2.77636138 6.54239048 6.11206117 9.33984375 9.76171875 C4.18857015 14.06726086 -2.12948885 16.43125682 -8.66015625 17.76171875 C-11.71810634 16.69633124 -12.51494004 15.34697932 -14.66015625 12.76171875 C-20.12017043 10.00375937 -25.68071046 10.00168543 -31.66015625 10.76171875 C-36.78323598 12.76460291 -40.76030445 16.07734277 -43.66015625 20.76171875 C-47.09170295 30.50731139 -47.97230511 44.17284525 -43.59765625 53.69921875 C-40.4450277 58.78294457 -36.36023915 61.86169112 -30.66015625 63.76171875 C-23.95929654 64.39068031 -17.7208872 63.82919074 -11.66015625 60.76171875 C-6.91367765 56.60854998 -7.52147464 54.65226584 -6.66015625 47.76171875 C-12.93015625 47.76171875 -19.20015625 47.76171875 -25.66015625 47.76171875 C-25.66015625 42.48171875 -25.66015625 37.20171875 -25.66015625 31.76171875 C-12.46015625 31.76171875 0.73984375 31.76171875 14.33984375 31.76171875 C14.33984375 47.60171875 14.33984375 63.44171875 14.33984375 79.76171875 C9.71984375 79.76171875 5.09984375 79.76171875 0.33984375 79.76171875 C0.39205078 82.25992188 0.39205078 82.25992188 0.4453125 84.80859375 C0.47347676 87.04295856 0.50077406 89.27733441 0.52734375 91.51171875 C0.55248047 92.60355469 0.57761719 93.69539063 0.60351562 94.8203125 C0.75915145 112.35528229 0.75915145 112.35528229 -4.04199219 118.54248047 C-6.60466367 120.75686672 -9.54469843 122.44364044 -12.66015625 123.76171875 C-12.66015625 126.40171875 -12.66015625 129.04171875 -12.66015625 131.76171875 C-12.12648438 130.97410156 -11.5928125 130.18648437 -11.04296875 129.375 C-3.005321 117.62445961 5.28920609 105.90393397 15.33984375 95.76171875 C15.66984375 95.76171875 15.99984375 95.76171875 16.33984375 95.76171875 C16.42228068 97.13566759 16.47967465 98.51112473 16.52734375 99.88671875 C16.57955078 101.03527344 16.57955078 101.03527344 16.6328125 102.20703125 C15.93478842 108.29380119 12.59173181 111.80131133 8.08984375 115.63671875 C4.70994555 118.59912624 1.54515444 121.50857786 -1.34765625 124.94921875 C-4.72894622 128.95939599 -8.42594009 132.64689307 -12.66015625 135.76171875 C-13.32015625 135.76171875 -13.98015625 135.76171875 -14.66015625 135.76171875 C-14.16515625 139.22671875 -14.16515625 139.22671875 -13.66015625 142.76171875 C-12.88671875 141.83230469 -12.11328125 140.90289062 -11.31640625 139.9453125 C9.30944353 115.36636863 9.30944353 115.36636863 23.33984375 113.76171875 C20.3796652 122.22574686 13.99239877 127.64124108 6.55078125 132.23828125 C4.20078058 133.85753966 2.41564142 135.62102205 0.46484375 137.69921875 C-3.94749297 142.3161598 -9.04696568 145.7377777 -14.66015625 148.76171875 C-15.32015625 148.76171875 -15.98015625 148.76171875 -16.66015625 148.76171875 C-16.66015625 151.40171875 -16.66015625 154.04171875 -16.66015625 156.76171875 C-11.11958989 151.97483237 -5.96751013 147.41595664 -1.59765625 141.51171875 C2.83429665 135.70905877 8.9731719 130.99396204 16.33984375 129.76171875 C18.71274261 129.64389583 21.08905388 129.58661849 23.46484375 129.57421875 C24.70492187 129.56003906 25.945 129.54585937 27.22265625 129.53125 C30.33984375 129.76171875 30.33984375 129.76171875 32.33984375 131.76171875 C31.82188232 132.02799072 31.3039209 132.2942627 30.77026367 132.56860352 C13.21996173 141.57726351 13.21996173 141.57726351 -2.84765625 152.94921875 C-7.50176726 156.76588622 -12.40361315 160.76171875 -18.66015625 160.76171875 C-18.99015625 163.73171875 -19.32015625 166.70171875 -19.66015625 169.76171875 C-18.75265625 168.62734375 -17.84515625 167.49296875 -16.91015625 166.32421875 C-6.6894965 154.70233951 7.04764991 147.10292947 22.33984375 144.76171875 C27.02025088 144.54446474 31.65911194 144.57476644 36.33984375 144.76171875 C33.97211443 150.38664185 29.39769962 153.58629796 24.33984375 156.76171875 C20.56410815 158.28884748 16.78995174 159.51761931 12.890625 160.67578125 C9.20980147 161.80148966 5.85771386 163.23340257 2.3828125 164.86328125 C0.21314177 165.81743855 -1.96310292 166.54817559 -4.22265625 167.26171875 C-7.98680376 168.46388104 -11.39092147 170.0101268 -14.87109375 171.875 C-16.66015625 172.76171875 -16.66015625 172.76171875 -19.53515625 173.51171875 C-21.80288857 174.551663 -21.80288857 174.551663 -22.40625 176.66015625 C-22.91814297 178.67242518 -23.29743481 180.7172888 -23.66015625 182.76171875 C-22.90734375 182.20484375 -22.15453125 181.64796875 -21.37890625 181.07421875 C-6.39449402 170.3087187 10.15308249 160.8196033 29.33984375 162.76171875 C34.66608599 163.63487321 39.46067133 165.52543139 44.33984375 167.76171875 C40.30005755 170.45490955 36.07336208 171.6195813 31.46484375 173.07421875 C30.48612305 173.38399658 29.50740234 173.69377441 28.49902344 174.01293945 C18.55647506 177.09864046 8.50122125 179.52061294 -1.66015625 181.76171875 C-2.93125244 182.04208984 -2.93125244 182.04208984 -4.22802734 182.328125 C-5.06543457 182.51246094 -5.9028418 182.69679688 -6.765625 182.88671875 C-7.57999023 183.06630127 -8.39435547 183.24588379 -9.23339844 183.4309082 C-10.7552347 183.7645367 -12.27796475 184.09412717 -13.80175781 184.41870117 C-15.75992173 184.84229363 -17.71040719 185.30094214 -19.66015625 185.76171875 C-20.75457031 185.98472656 -21.84898437 186.20773437 -22.9765625 186.4375 C-25.96704091 187.91315092 -26.26735177 188.45798355 -27.53515625 191.38671875 C-27.90640625 192.50046875 -28.27765625 193.61421875 -28.66015625 194.76171875 C-27.60957031 194.21902344 -26.55898438 193.67632812 -25.4765625 193.1171875 C-10.09996682 185.24557307 3.42190046 181.40833958 20.90234375 181.38671875 C21.94841797 181.36222656 22.99449219 181.33773437 24.07226562 181.3125 C31.27515497 181.2856736 37.95682943 182.19507283 44.33984375 185.76171875 C44.66984375 186.75171875 44.99984375 187.74171875 45.33984375 188.76171875 C44.75307861 188.79612061 44.16631348 188.83052246 43.56176758 188.8659668 C29.85654314 189.72412326 17.01199461 191.67156497 3.73974609 195.16455078 C-0.36262871 196.18534516 -4.50773084 196.9743676 -8.66015625 197.76171875 C-10.26890625 198.07496094 -10.26890625 198.07496094 -11.91015625 198.39453125 C-18.26535203 199.53196686 -24.20501476 199.95157585 -30.66015625 199.76171875 C-31.98015625 202.40171875 -33.30015625 205.04171875 -34.66015625 207.76171875 C-34.03109375 207.35179687 -33.40203125 206.941875 -32.75390625 206.51953125 C-21.51127159 199.44208955 -10.48887538 198.59916781 2.5546875 198.62890625 C3.49163956 198.62794952 4.42859161 198.6269928 5.39393616 198.62600708 C7.35613066 198.62533136 9.31832747 198.62714285 11.28051758 198.63134766 C14.29318169 198.63674714 17.30569958 198.63136047 20.31835938 198.625 C22.23046908 198.62566006 24.14257869 198.62693973 26.0546875 198.62890625 C27.40771217 198.6258699 27.40771217 198.6258699 28.78807068 198.62277222 C29.61976273 198.62592438 30.45145477 198.62907654 31.30834961 198.63232422 C32.04065292 198.63311981 32.77295624 198.63391541 33.52745056 198.63473511 C35.33984375 198.76171875 35.33984375 198.76171875 37.33984375 199.76171875 C35.60424838 203.95607423 33.27297959 205.72543736 29.3359375 207.8359375 C24.96062143 209.18789305 20.76539188 209.011242 16.21484375 208.94921875 C15.30863281 208.94857422 14.40242188 208.94792969 13.46875 208.94726562 C6.76235651 208.90255634 6.76235651 208.90255634 3.33984375 207.76171875 C-6.78212812 207.06404611 -16.60034347 207.7624973 -26.59765625 209.44921875 C-27.55067627 209.59770264 -28.50369629 209.74618652 -29.4855957 209.89916992 C-34.88092775 210.80380268 -34.88092775 210.80380268 -38.7890625 214.40625 C-39.07652344 215.18355469 -39.36398437 215.96085938 -39.66015625 216.76171875 C-38.52578125 216.16359375 -37.39140625 215.56546875 -36.22265625 214.94921875 C-25.13097132 210.1245075 -13.16313733 209.48615371 -1.22265625 209.38671875 C-0.2287085 209.37286133 0.76523926 209.35900391 1.78930664 209.34472656 C8.79653086 209.38922803 16.89440651 209.6639708 22.34545898 214.56494141 C26.33984375 219.05854899 26.33984375 219.05854899 26.33984375 220.76171875 C24.61689087 220.7606311 24.61689087 220.7606311 22.85913086 220.75952148 C19.36946217 220.75772075 15.87980497 220.75896166 12.39013672 220.76123047 C8.3187864 220.7634773 4.24759704 220.75590453 0.17626953 220.74267578 C-5.15940911 220.72928423 -10.49388351 220.75656462 -15.8293457 220.80444336 C-18.03503459 220.8177892 -20.24083518 220.81813491 -22.4465332 220.80639648 C-25.68419636 220.79145452 -28.91883732 220.82085748 -32.15625 220.859375 C-33.6311515 220.83799217 -33.6311515 220.83799217 -35.135849 220.81617737 C-40.22891488 220.83187334 -40.22891488 220.83187334 -44.41995239 223.38009644 C-46.00936069 225.49524366 -46.00936069 225.49524366 -47.66015625 228.76171875 C-46.81453125 228.28734375 -45.96890625 227.81296875 -45.09765625 227.32421875 C-32.99887307 221.82477185 -16.75658916 224.45689783 -4.09765625 226.63671875 C-2.57108398 226.89714966 -2.57108398 226.89714966 -1.01367188 227.1628418 C4.37508623 228.15965155 4.37508623 228.15965155 6.33984375 228.76171875 C6.66984375 229.42171875 6.99984375 230.08171875 7.33984375 230.76171875 C-5.48253782 235.28171973 -17.63570124 235.23795216 -31.09765625 235.01171875 C-33.19724843 234.99160678 -35.29685939 234.97336439 -37.39648438 234.95703125 C-42.48484796 234.91344564 -47.57228862 234.84468178 -52.66015625 234.76171875 C-53.32015625 236.08171875 -53.98015625 237.40171875 -54.66015625 238.76171875 C-53.96148437 238.27445313 -53.2628125 237.7871875 -52.54296875 237.28515625 C-46.0448164 233.8511733 -37.81504599 235.22339355 -30.97265625 237.19921875 C-30.09609375 237.4725 -29.21953125 237.74578125 -28.31640625 238.02734375 C-24.15504571 239.17783755 -19.95669934 239.4914373 -15.66015625 239.76171875 C-20.02530483 244.99391739 -28.00334559 246.23035662 -34.41015625 247.51171875 C-40.78123971 248.00180209 -46.11373475 247.8728093 -52.2890625 246.296875 C-53.46275391 246.03197266 -53.46275391 246.03197266 -54.66015625 245.76171875 C-55.77390625 245.478125 -56.88765625 245.19453125 -58.03515625 244.90234375 C-62.71395953 244.72083845 -64.76335299 246.49632651 -68.09765625 249.44921875 C-69.2252566 250.38234937 -70.35675328 251.3107926 -71.4921875 252.234375 C-72.30357178 252.89783936 -72.30357178 252.89783936 -73.13134766 253.57470703 C-76.8877706 256.49130371 -80.83717372 258.76171875 -85.66015625 258.76171875 C-85.66015625 258.10171875 -85.66015625 257.44171875 -85.66015625 256.76171875 C-84.98210937 256.42140625 -84.3040625 256.08109375 -83.60546875 255.73046875 C-75.86471319 251.69927195 -67.59733339 247.16748446 -62.66015625 239.76171875 C-63.32015625 239.57609375 -63.98015625 239.39046875 -64.66015625 239.19921875 C-73.07073779 235.16914843 -78.53238138 227.96009709 -82.66015625 219.76171875 C-83.64956895 216.71432763 -84.19038542 213.94572106 -84.66015625 210.76171875 C-79.75616807 213.48336948 -75.10742808 216.3909082 -70.53515625 219.63671875 C-69.64376953 220.24966797 -69.64376953 220.24966797 -68.734375 220.875 C-64.00287818 224.22778251 -59.47792841 227.86806341 -57.84765625 233.63671875 C-57.78578125 234.33796875 -57.72390625 235.03921875 -57.66015625 235.76171875 C-57.00015625 234.44171875 -56.34015625 233.12171875 -55.66015625 231.76171875 C-64.84399671 221.64786913 -73.95298304 212.3099524 -84.66015625 203.76171875 C-85.62695312 202.98570312 -86.59375 202.2096875 -87.58984375 201.41015625 C-89.9434225 199.52329283 -92.30013869 197.64051798 -94.66015625 195.76171875 C-92.09826688 193.03863185 -89.72835469 191.13294011 -86.47265625 189.32421875 C-76.50598715 182.74555928 -71.98179721 172.61527428 -69.21875 161.46484375 C-68.0387839 153.64241117 -68.79689236 146.84741343 -70.66015625 139.19921875 C-70.8509375 138.38130859 -71.04171875 137.56339844 -71.23828125 136.72070312 C-71.70340752 134.73228831 -72.18051052 132.74668119 -72.66015625 130.76171875 C-66.85267893 134.08027722 -62.52495008 137.66856667 -58.41015625 142.94921875 C-55.46959547 146.62613887 -52.47575262 150.04530656 -49.09765625 153.32421875 C-39.849863 162.39478948 -31.52411494 172.87390466 -28.66015625 185.76171875 C-27.02377639 182.69059826 -26.35793817 180.24961268 -26.66015625 176.76171875 C-29.3146917 172.8209651 -32.57592801 169.66991208 -35.99316406 166.38818359 C-38.81946662 163.63059314 -41.48245299 160.72499484 -44.16015625 157.82421875 C-44.66369629 157.29280273 -45.16723633 156.76138672 -45.68603516 156.21386719 C-50.37184097 151.20615999 -52.75274691 146.99933823 -54.47265625 140.38671875 C-56.20132589 134.54091225 -58.25194887 130.89934563 -62.66015625 126.76171875 C-63.61889754 125.78295153 -64.57726534 124.80381823 -65.53515625 123.82421875 C-66.23640625 123.14359375 -66.93765625 122.46296875 -67.66015625 121.76171875 C-59.33805077 122.54191614 -53.62168186 128.3809926 -48.4609375 134.43359375 C-46.3907797 137.10997997 -44.70266009 139.89759306 -42.99609375 142.8125 C-41.47520189 145.03157905 -39.75468574 146.68179193 -37.78515625 148.51171875 C-30.9542056 155.09639224 -25.84550685 163.12348779 -25.66015625 172.76171875 C-25.00015625 172.76171875 -24.34015625 172.76171875 -23.66015625 172.76171875 C-22.29900329 166.90229673 -22.29900329 166.90229673 -24.546875 161.515625 C-25.460481 160.4346087 -26.39563812 159.37156475 -27.34765625 158.32421875 C-28.3787326 157.10079229 -29.40593185 155.87409016 -30.4296875 154.64453125 C-30.9654541 154.0093457 -31.5012207 153.37416016 -32.05322266 152.71972656 C-34.70362268 149.49028138 -37.12885948 146.11271859 -39.53515625 142.69921875 C-40.26496704 141.66498779 -40.26496704 141.66498779 -41.00952148 140.60986328 C-47.28630345 131.58182487 -52.97093692 122.16665752 -58.66015625 112.76171875 C-52.93469091 112.76171875 -48.66975513 117.97473156 -44.66015625 121.76171875 C-34.17075731 132.26532134 -26.61568338 144.80881269 -21.66015625 158.76171875 C-20.56243928 155.86425652 -19.80949655 153.80452733 -19.66015625 150.76171875 C-20.95914017 147.87883228 -23.00733806 145.79892047 -25.16015625 143.51171875 C-26.37573492 142.1210581 -27.58512394 140.72496872 -28.7890625 139.32421875 C-29.42473145 138.58945312 -30.06040039 137.8546875 -30.71533203 137.09765625 C-53.39577008 109.85607562 -53.39577008 109.85607562 -52.66015625 97.76171875 C-37.02438246 107.85893507 -26.37509152 126.72607911 -19.66015625 143.76171875 C-19.66015625 144.75171875 -19.66015625 145.74171875 -19.66015625 146.76171875 C-19.00015625 146.76171875 -18.34015625 146.76171875 -17.66015625 146.76171875 C-17.02790244 142.06372171 -16.4423469 137.62577892 -19.125 133.51953125 C-20.5007642 132.07565991 -21.89853533 130.65257713 -23.3125 129.24609375 C-30.04347666 122.1231301 -34.74008477 112.94184546 -39.16015625 104.26171875 C-39.49853516 103.60357178 -39.83691406 102.9454248 -40.18554688 102.26733398 C-42.07305729 98.44199909 -43.18902666 95.00188507 -43.66015625 90.76171875 C-33.37605524 94.03393271 -27.4455581 106.76030624 -22.61328125 115.7890625 C-20.00395539 120.9070688 -18.16051309 126.22193964 -16.66015625 131.76171875 C-16.08307826 127.37409403 -15.6668229 123.41727434 -18.0078125 119.515625 C-19.23183611 118.04948683 -20.46411849 116.59021722 -21.703125 115.13671875 C-30.35285848 104.639637 -30.39150456 94.70929254 -29.66015625 81.76171875 C-30.26601563 81.7359375 -30.871875 81.71015625 -31.49609375 81.68359375 C-43.52547571 80.86929712 -51.42640071 76.56787441 -59.66015625 67.76171875 C-68.77431935 56.88711828 -69.73746619 42.61783543 -68.88330078 29.03955078 C-67.89516845 18.95281701 -63.07998291 9.98633979 -55.81640625 2.984375 C-39.51563758 -10.1430883 -17.4907075 -10.96968543 0 0 Z " fill="#9FB48E" transform="translate(370.66015625,211.23828125)"/>
<path d="M0 0 C0.33 0 0.66 0 1 0 C1 77.22 1 154.44 1 234 C-76.55 234 -154.1 234 -234 234 C-234 233.67 -234 233.34 -234 233 C-232.71609375 232.90203125 -231.4321875 232.8040625 -230.109375 232.703125 C-217.50838981 231.66726297 -205.32059107 229.83091857 -193 227 C-191.18242187 226.58814453 -191.18242187 226.58814453 -189.328125 226.16796875 C-155.36424145 217.75383923 -123.51278078 202.65106763 -96 181 C-95.030625 180.24203125 -94.06125 179.4840625 -93.0625 178.703125 C-68.14360931 158.73969552 -47.62285953 134.8647059 -32 107 C-31.6292334 106.34741211 -31.2584668 105.69482422 -30.87646484 105.02246094 C-12.72623374 72.86708773 -2.83989762 36.7038084 0 0 Z " fill="#000000" transform="translate(499,266)"/>
<path d="M0 0 C0.33 0 0.66 0 1 0 C1.09498779 0.7935791 1.18997559 1.5871582 1.2878418 2.40478516 C9.57287681 70.56333434 38.02350443 133.73491529 93 177 C94.40958984 178.15242188 94.40958984 178.15242188 95.84765625 179.328125 C135.68569825 211.1985586 183.70676781 227.36970128 234 232 C234 232.33 234 232.66 234 233 C156.78 233 79.56 233 0 233 C0 156.11 0 79.22 0 0 Z " fill="#000000" transform="translate(0,267)"/>
<path d="M0 0 C77.55 0 155.1 0 235 0 C235 76.23 235 152.46 235 231 C234.67 231 234.34 231 234 231 C233.94577881 230.42483643 233.89155762 229.84967285 233.83569336 229.25708008 C227.93275751 169.53015514 202.95581165 117.45832771 162 74 C161.31035156 73.2678125 160.62070312 72.535625 159.91015625 71.78125 C155.15930291 66.88466497 150.03309894 62.54238515 144.67675781 58.32177734 C143.49314429 57.38874245 142.31313833 56.45112233 141.13574219 55.51025391 C130.58413495 47.09748597 119.71063898 39.70336733 108 33 C107.32565918 32.6086084 106.65131836 32.2172168 105.95654297 31.81396484 C74.05609604 13.45889033 36.72649956 2.91215168 0 1 C0 0.67 0 0.34 0 0 Z " fill="#000000" transform="translate(265,0)"/>
<path d="M0 0 C77.22 0 154.44 0 234 0 C234 0.33 234 0.66 234 1 C233.31824707 1.05945801 232.63649414 1.11891602 231.93408203 1.18017578 C184.00814211 5.52253944 139.68399883 21.09695293 101 50 C100.38672852 50.45487793 99.77345703 50.90975586 99.14160156 51.37841797 C83.08096515 63.36913315 68.45476307 77.30863732 56 93 C55.21625 93.96679688 54.4325 94.93359375 53.625 95.9296875 C32.98113047 121.93302315 17.19368105 152.80150382 9 185 C8.78891602 185.80276367 8.57783203 186.60552734 8.36035156 187.43261719 C4.3674962 202.8001266 2.45399333 218.20706129 1 234 C0.67 234 0.34 234 0 234 C0 156.78 0 79.56 0 0 Z " fill="#000000" transform="translate(0,0)"/>
<path d="M0 0 C6.6 0 13.2 0 20 0 C20.02578125 3.20203125 20.0515625 6.4040625 20.078125 9.703125 C20.11653743 12.80428867 20.16170034 15.90528563 20.20751953 19.00634766 C20.23574499 21.16154013 20.25695165 23.31683643 20.27099609 25.47216797 C20.29240347 28.5705283 20.3390432 31.66763827 20.390625 34.765625 C20.39185364 35.72929993 20.39308228 36.69297485 20.39434814 37.68585205 C20.4535048 43.01109162 20.4535048 43.01109162 22.89941406 47.60644531 C26.47328729 49.97739701 29.87627328 49.76561838 34 49 C37.03215675 46.80168636 37.81654398 45.55036806 39 42 C39.11294746 40.60420727 39.17589187 39.20400091 39.20532227 37.80395508 C39.2352401 36.54298759 39.2352401 36.54298759 39.26576233 35.25654602 C39.29083107 33.90172371 39.29083107 33.90172371 39.31640625 32.51953125 C39.33718735 31.59154221 39.35796844 30.66355316 39.37937927 29.70744324 C39.44477323 26.7425376 39.50371262 23.77754328 39.5625 20.8125 C39.60569487 18.8027252 39.64930947 16.79295937 39.69335938 14.78320312 C39.80123429 9.85555833 39.90038332 4.92784639 40 0 C46.6 0 53.2 0 60 0 C60.06058594 3.00480469 60.12117188 6.00960937 60.18359375 9.10546875 C60.24582855 12.09449705 60.30902892 15.08350354 60.37231445 18.07250977 C60.41498427 20.11155152 60.45668865 22.15061376 60.49731445 24.18969727 C60.74603584 36.63497866 61.1536521 49.05604854 61.77954102 61.48803711 C62.99667441 85.83666357 62.99667441 85.83666357 59.65625 93.83203125 C58.72965627 96.89309984 58.96123069 99.81976241 59 103 C59.25692627 101.8855249 59.51385254 100.7710498 59.77856445 99.62280273 C60.73928157 95.46338365 61.70858913 91.30600509 62.68041992 87.14916992 C63.09875945 85.35446263 63.51480989 83.55922009 63.9284668 81.76342773 C64.52562864 79.172852 65.13116907 76.58435328 65.73828125 73.99609375 C65.91966141 73.20101913 66.10104156 72.40594452 66.28791809 71.58677673 C67.42404074 66.78711235 68.92862369 62.47886275 71 58 C71.66 58 72.32 58 73 58 C73.95141338 77.32519217 73.69576955 89.70597343 61.15625 105.046875 C58.98643374 108.71210516 59.01710678 112.82594497 59 117 C59.66 117 60.32 117 61 117 C61.13921875 115.52080078 61.13921875 115.52080078 61.28125 114.01171875 C61.92344595 109.5732082 63.57074696 105.83323245 65.5 101.8125 C65.85239746 101.07217529 66.20479492 100.33185059 66.56787109 99.5690918 C71.1359806 90.29745451 77.20420857 81.84508516 85 75 C85.66 75 86.32 75 87 75 C86.43938457 80.23241066 84.69990445 84.1538479 82.3125 88.75 C81.7712146 89.80779663 81.7712146 89.80779663 81.21899414 90.88696289 C76.15886968 100.68093301 70.53075495 109.60267515 63.3046875 117.9609375 C61.72325822 120.4325126 61.68444455 121.84740987 61.8125 124.75 C61.83957031 125.54921875 61.86664063 126.3484375 61.89453125 127.171875 C61.94673828 128.07679688 61.94673828 128.07679688 62 129 C63.81286646 126.28070031 65.23961158 123.54112968 66.66333008 120.60644531 C72.92153452 107.73498216 80.03019427 97.26390029 90 87 C90.89460938 86.05898438 91.78921875 85.11796875 92.7109375 84.1484375 C95 82 95 82 97 82 C94.18760514 100.11316213 76.68069023 121.31930977 64 134 C63.92794489 135.68608966 63.91613932 137.37500659 63.9375 139.0625 C63.94652344 139.98160156 63.95554687 140.90070313 63.96484375 141.84765625 C63.97644531 142.55792969 63.98804688 143.26820313 64 144 C64.66 144 65.32 144 66 144 C66.10441406 143.14535156 66.20882812 142.29070312 66.31640625 141.41015625 C70.00197991 123.02440878 86.71714645 106.05685384 101 95 C101.66 95.33 102.32 95.66 103 96 C94.96349112 109.20236356 86.82122721 122.10784934 77.31054688 134.29980469 C74.59541127 137.82219745 72.02374483 141.44941454 69.42578125 145.05859375 C68 147 68 147 67 148 C67.08937803 149.52519276 67.24537146 151.04681929 67.4375 152.5625 C67.59025391 153.80193359 67.59025391 153.80193359 67.74609375 155.06640625 C67.82988281 155.70449219 67.91367188 156.34257812 68 157 C68.20753906 156.33355469 68.41507812 155.66710937 68.62890625 154.98046875 C71.64528276 145.95658085 75.51791326 137.26895637 83.40625 131.5625 C86.22929524 128.79480859 87.96950368 125.26863703 89.96411133 121.88183594 C93.94254167 115.23942209 98.51034354 109.66298896 106 107 C108.17578125 107.4375 108.17578125 107.4375 110 108 C109.46890625 108.40089844 108.9378125 108.80179687 108.390625 109.21484375 C102.29309014 114.12180155 99.25466386 118.84193747 97.40234375 126.45703125 C94.54657754 136.8657529 86.39804871 143.5764069 79 151 C77.1439219 152.87713756 75.31632729 154.77106018 73.5 156.6875 C72.7884375 157.41324219 72.076875 158.13898438 71.34375 158.88671875 C69.73303008 160.94854696 69.73303008 160.94854696 70.21875 163.58203125 C70.80324326 165.3910379 71.39882303 167.1964691 72 169 C72.25652344 168.27296875 72.51304687 167.5459375 72.77734375 166.796875 C76.99926899 155.70899052 83.55000477 147.03684803 92.0859375 138.875 C94.67455562 136.33921083 97.01184326 133.617155 99.359375 130.859375 C101.15988988 128.81879147 103.05932457 126.90692455 105 125 C105.80132573 137.45136906 103.4275722 144.74146705 95.34765625 154.2578125 C94.23622465 155.50917832 93.12043189 156.75668628 92 158 C91.48421387 158.58749023 90.96842773 159.17498047 90.43701172 159.78027344 C87.37342402 163.26872373 84.2320693 166.6658116 81 170 C80.11183594 170.93457031 79.22367187 171.86914062 78.30859375 172.83203125 C76 175 76 175 74 175 C75.32 178.3 76.64 181.6 78 185 C78.37125 183.535625 78.7425 182.07125 79.125 180.5625 C82.72740594 168.68293809 91.38900982 160.41362678 101.234375 153.3203125 C103.36175642 151.72948303 105.19979329 149.95022393 107 148 C110.3203125 152.98046875 110.3203125 152.98046875 111 155 C109.85295693 158.6404856 108.3507647 161.04318745 105.7265625 163.78515625 C105.07171875 164.47552979 104.416875 165.16590332 103.7421875 165.87719727 C103.04351562 166.59834717 102.34484375 167.31949707 101.625 168.0625 C100.9134375 168.80749756 100.201875 169.55249512 99.46875 170.32006836 C93.40814406 176.64202435 87.24550598 182.86095151 81 189 C82.65 192.63 84.3 196.26 86 200 C86.350625 198.783125 86.70125 197.56625 87.0625 196.3125 C91.41995387 183.57993984 97.8533113 175.39158579 108 167 C109.4179821 165.77235107 110.83492573 164.54349957 112.25 163.3125 C113.1575 162.549375 114.065 161.78625 115 161 C118.99500618 162.3697164 121.80009492 164.25722422 125 167 C119.03742628 178.69975805 119.03742628 178.69975805 114 183 C113.48824219 183.46664062 112.97648437 183.93328125 112.44921875 184.4140625 C109.2977342 187.23953141 106.06618584 189.65708184 102.5 191.9375 C97.77453567 195.02037998 92.43217033 198.62940378 90.16015625 203.9765625 C89.94509202 206.69371548 90.7721344 207.637829 92.4375 209.75 C93.14712891 210.67039062 93.14712891 210.67039062 93.87109375 211.609375 C94.24363281 212.06828125 94.61617188 212.5271875 95 213 C95.04125 211.700625 95.0825 210.40125 95.125 209.0625 C95.77663869 203.32445935 98.17365821 199.26585402 102 195 C104.19856381 193.32025615 106.50781103 192.18273375 109 191 C113.66972978 188.39719979 117.63704456 185.5138772 121.5625 181.875 C127.51857939 176.47889389 132.16441158 174.61010458 140.27734375 174.89453125 C140.84582031 174.92933594 141.41429687 174.96414063 142 175 C140.45963006 179.26563984 137.25361245 181.38850013 133.75 184 C114.86642454 198.44370467 114.86642454 198.44370467 99 216 C99.66 217.32 100.32 218.64 101 220 C101.33 218.824375 101.66 217.64875 102 216.4375 C106.01044828 205.89150638 118.85973869 200.46768785 128 195 C127.81146378 203.29559352 123.22943987 210.50052164 117.7109375 216.48046875 C113.98379183 219.90221285 110.80200219 222.29823782 106 224 C108.93304529 228.04631796 112.18771368 230.82077578 116.3125 233.5625 C116.88701904 233.95236084 117.46153809 234.34222168 118.0534668 234.74389648 C121.9403613 237.35877634 125.87076636 239.79134015 130 242 C128.359375 242.6875 128.359375 242.6875 126 243 C119.90351907 240.35238542 114.44701459 236.61455624 109.625 232.0625 C107.23994292 229.88760163 106.33722442 229.07330966 103.125 228.375 C100.3777209 228.92445582 97.8527907 229.65400634 95.1875 230.5 C82.60103754 234.46379639 70.41947365 230.78704467 59 225 C59 224.67 59 224.34 59 224 C59.83402344 223.87882813 60.66804688 223.75765625 61.52734375 223.6328125 C69.09666638 222.51753275 69.09666638 222.51753275 76.5625 220.875 C85.56083365 218.82390924 93.09590481 219.13594142 101 224 C98.14612882 220.21190656 98.14612882 220.21190656 93.85668945 218.58053589 C91.19292743 218.48810892 88.56946485 218.54363149 85.90625 218.65234375 C84.92313843 218.66890518 83.94002686 218.68546661 82.92712402 218.70252991 C79.78369755 218.75689803 76.64248227 218.84375571 73.5 218.9375 C47.74626847 219.6722341 47.74626847 219.6722341 37 215 C37.33 214.34 37.66 213.68 38 213 C40.59399638 212.38111274 43.12485407 211.87425403 45.75 211.4375 C47.18231478 211.18632969 48.61460697 210.93503051 50.046875 210.68359375 C50.73821533 210.56717529 51.42955566 210.45075684 52.1418457 210.33081055 C53.57149107 210.07628821 54.99052433 209.76162992 56.40234375 209.421875 C60.52735015 208.75194915 64.64069737 208.81556976 68.8125 208.8125 C69.67681641 208.80025391 70.54113281 208.78800781 71.43164062 208.77539062 C78.34458003 208.75973869 84.89489195 209.43868697 91 213 C89.49609582 209.83252673 88.65145318 208.18313558 86 206 C81.40867542 204.91517819 76.85964968 205.04657735 72.16015625 205.09765625 C70.79159682 205.08826077 69.42305535 205.07579655 68.05455017 205.06040955 C64.4578134 205.02820411 60.86235194 205.0376049 57.26556396 205.05578613 C53.617653 205.06690319 49.9700765 205.03862367 46.32226562 205.01367188 C39.89521909 204.97518234 33.46881172 204.97080288 27.04164124 204.99085999 C24.0277406 204.99991664 21.01391216 205.00139377 18 205 C19.36560158 200.53075845 21.15006634 198.60750355 25 196 C42.32558642 191.00788188 66.93867612 192.96933806 83 201 C82.34 199.02 81.68 197.04 81 195 C79.65808594 194.92652344 79.65808594 194.92652344 78.2890625 194.8515625 C67.21320997 194.16670168 67.21320997 194.16670168 62 192.9375 C54.96858594 191.37755052 47.28937594 191.24726829 40.1953125 192.4921875 C35.83086353 193.18580408 31.53801427 193.26332079 27.125 193.3125 C26.26519531 193.34150391 25.40539062 193.37050781 24.51953125 193.40039062 C18.5636524 193.45913602 13.91897752 192.50524373 9 189 C7 186.25 7 186.25 6 184 C8.2763112 182.8618444 9.54724644 182.86774259 12.07568359 182.85473633 C12.91771332 182.84835648 13.75974304 182.84197662 14.62728882 182.83540344 C15.54176788 182.83429062 16.45624695 182.8331778 17.3984375 182.83203125 C18.3437735 182.82870285 19.2891095 182.82537445 20.26309204 182.82194519 C22.27223219 182.81687249 24.2813808 182.81453697 26.29052734 182.81469727 C29.3279469 182.81253352 32.36498962 182.79444523 35.40234375 182.77539062 C50.9296781 182.72909727 63.98322292 183.86418621 78 191 C77.505 190.05125 77.01 189.1025 76.5 188.125 C75 185 75 185 75 183 C74.505 183.165 74.01 183.33 73.5 183.5 C67.77796662 184.64440668 62.87076335 184.12186755 57.3046875 182.5625 C54.53101462 181.88553577 51.76611156 181.51229156 48.9375 181.125 C44.03523806 180.41256055 39.39124385 179.34752444 34.625 178 C22.95089062 174.76920224 11.05359884 173.772406 -1 173 C-1 172.01 -1 171.02 -1 170 C12.50992988 162.77375844 33.03977995 163.92694107 47.52612305 167.79418945 C56.22955361 170.49720889 64.24435521 174.21640887 72 179 C71.34 176.36 70.68 173.72 70 171 C69.42822021 170.8860791 68.85644043 170.7721582 68.26733398 170.65478516 C66.52035219 170.30611736 64.77354383 169.95658014 63.02685547 169.60644531 C61.01320818 169.20300122 58.99921073 168.80130079 56.98486328 168.40136719 C37.27523783 164.45637445 18.05849887 159.39838554 -1 153 C3.39423454 148.05128792 9.32384612 147.26364652 15.6875 146.63671875 C35.26891529 145.6760844 51.8889198 155.34115054 67 167 C67 163.37737934 66.65746963 161.24587803 65 158 C61.75039721 156.93766597 61.75039721 156.93766597 59.33984375 156.5546875 C56.64360486 155.91551234 54.51139642 154.85380576 52.0625 153.5625 C48.17910262 151.53173256 44.39670921 150.04457891 40.21875 148.75 C37.87191708 147.95670437 35.68246293 146.98309917 33.4375 145.9375 C30.602431 144.62069152 28.07000847 143.74678867 25 143.1875 C17.33867575 141.45949673 11.57202006 135.04686525 7 129 C25.88210099 128.39737976 41.85176575 133.06944165 56 146 C58.39878768 148.28242858 60.70676428 150.60917978 63 153 C62.505 148.545 62.505 148.545 62 144 C61.11699219 144.0721875 60.23398438 144.144375 59.32421875 144.21875 C55.33916518 143.95651381 53.92154156 142.94584207 50.8125 140.5 C49.84957031 139.76523437 48.88664062 139.03046875 47.89453125 138.2734375 C46.09919464 136.86333506 44.3047501 135.45209506 42.51171875 134.0390625 C32.80670776 126.64333095 21.87817401 121.43069218 11 116 C13.48490868 113.51509132 15.05709028 113.69354429 18.45922852 113.61962891 C31.24723123 113.65134304 31.24723123 113.65134304 37 118 C37.56460938 118.40089844 38.12921875 118.80179687 38.7109375 119.21484375 C42.53745398 122.20160435 45.42938388 125.70379866 48.4375 129.5 C52.16319906 134.19233232 55.97500759 137.75497765 61 141 C60.67 138.36 60.34 135.72 60 133 C59.2884375 132.74863281 58.576875 132.49726563 57.84375 132.23828125 C50.55503627 129.06448695 44.56016818 123.56016818 39 118 C37.23545973 116.78249527 35.46374569 115.57536302 33.6875 114.375 C27.72475945 110.15745181 23.91491609 105.1023334 20 99 C22.37607916 98.15292245 23.59590713 97.85613036 26.0078125 98.71484375 C38.91608239 106.16925053 49.16759951 116.07625934 58 128 C58 125.36 58 122.72 58 120 C57.4121875 119.72800781 56.824375 119.45601563 56.21875 119.17578125 C47.88526169 114.75961931 41.64145401 106.40567431 35.40087891 99.50292969 C34.06850551 98.07349598 32.66632542 96.71008364 31.26171875 95.3515625 C28.40776146 92.38423558 27.11665191 90.53980521 26.8046875 86.421875 C26.82789062 85.54015625 26.85109375 84.6584375 26.875 83.75 C26.89304687 82.85796875 26.91109375 81.9659375 26.9296875 81.046875 C26.95289062 80.37140625 26.97609375 79.6959375 27 79 C35.24944465 86.98333353 42.42837383 95.59485891 49 105 C49.67804688 105.96292969 50.35609375 106.92585938 51.0546875 107.91796875 C52.70968073 110.27417398 54.35811083 112.63465341 56 115 C56.66923762 111.71256453 56.66923762 111.71256453 56 108 C54.12842968 106.48046314 52.15930133 105.45071772 50.04296875 104.30078125 C46.72089252 102.18557784 45.38661763 99.60060933 44 96 C42.68523227 88.06636731 42.67415617 80.04821931 42.48242188 72.0234375 C42.31217001 66.67817128 42.16111182 61.98718112 40 57 C39.45730469 57.49371094 38.91460937 57.98742187 38.35546875 58.49609375 C37.64003906 59.13675781 36.92460937 59.77742188 36.1875 60.4375 C35.47980469 61.07558594 34.77210937 61.71367187 34.04296875 62.37109375 C28.53206075 66.7650682 19.69664375 65.46876506 13 65 C8.63152494 63.85258408 6.06801199 61.47584167 3.6875 57.6875 C-0.07066281 50.66432697 -0.27630774 43.81832487 -0.1953125 36.03515625 C-0.1924826 35.00184677 -0.18965271 33.96853729 -0.18673706 32.90391541 C-0.17559647 29.62332278 -0.15050304 26.34300927 -0.125 23.0625 C-0.1149623 20.83008208 -0.10583783 18.59765986 -0.09765625 16.36523438 C-0.07567716 10.9100497 -0.04118949 5.45507208 0 0 Z " fill="#9FB48F" transform="translate(93,227)"/>
<path d="M0 0 C0.7734375 0.23332031 1.546875 0.46664062 2.34375 0.70703125 C12.48985366 4.13603851 19.49153026 11.17177673 24.74609375 20.34765625 C28.12707108 27.49931858 29.52864542 33.28417993 29.4375 41.25 C29.42992676 42.17586914 29.42235352 43.10173828 29.41455078 44.05566406 C29.12592533 56.08523568 25.5130655 66.18965766 17.1171875 74.96875 C7.54110066 83.83132449 -2.53677259 86.35841891 -15.3125 86.375 C-16.29412109 86.39949219 -17.27574219 86.42398438 -18.28710938 86.44921875 C-29.84261362 86.49510427 -39.40109204 81.92175643 -47.94140625 74.2578125 C-58.1993059 63.57896232 -59.46711869 50.51240417 -59.2734375 36.48828125 C-58.85057002 24.07230599 -53.05727795 15.68571096 -44.3125 7.25 C-32.52595851 -2.66822474 -14.37008267 -4.95520092 0 0 Z " fill="#FDFEFC" transform="translate(453,206)"/>
<path d="M0 0 C6.6 0 13.2 0 20 0 C20.02578125 3.20203125 20.0515625 6.4040625 20.078125 9.703125 C20.11653743 12.80428867 20.16170034 15.90528563 20.20751953 19.00634766 C20.23574499 21.16154013 20.25695165 23.31683643 20.27099609 25.47216797 C20.29240347 28.5705283 20.3390432 31.66763827 20.390625 34.765625 C20.39185364 35.72929993 20.39308228 36.69297485 20.39434814 37.68585205 C20.4535048 43.01109162 20.4535048 43.01109162 22.89941406 47.60644531 C26.47328729 49.97739701 29.87627328 49.76561838 34 49 C37.03215675 46.80168636 37.81654398 45.55036806 39 42 C39.11294746 40.60420727 39.17589187 39.20400091 39.20532227 37.80395508 C39.2352401 36.54298759 39.2352401 36.54298759 39.26576233 35.25654602 C39.29083107 33.90172371 39.29083107 33.90172371 39.31640625 32.51953125 C39.33718735 31.59154221 39.35796844 30.66355316 39.37937927 29.70744324 C39.44477323 26.7425376 39.50371262 23.77754328 39.5625 20.8125 C39.60569487 18.8027252 39.64930947 16.79295937 39.69335938 14.78320312 C39.80123429 9.85555833 39.90038332 4.92784639 40 0 C46.6 0 53.2 0 60 0 C60.06058594 3.00480469 60.12117188 6.00960937 60.18359375 9.10546875 C60.24582855 12.09449705 60.30902892 15.08350354 60.37231445 18.07250977 C60.41498427 20.11155152 60.45668865 22.15061376 60.49731445 24.18969727 C60.74603584 36.63497866 61.1536521 49.05604854 61.77954102 61.48803711 C62.99667441 85.83666357 62.99667441 85.83666357 59.65625 93.83203125 C58.72965627 96.89309984 58.96123069 99.81976241 59 103 C59.25692627 101.8855249 59.51385254 100.7710498 59.77856445 99.62280273 C60.73928157 95.46338365 61.70858913 91.30600509 62.68041992 87.14916992 C63.09875945 85.35446263 63.51480989 83.55922009 63.9284668 81.76342773 C64.52562864 79.172852 65.13116907 76.58435328 65.73828125 73.99609375 C65.91966141 73.20101913 66.10104156 72.40594452 66.28791809 71.58677673 C67.42404074 66.78711235 68.92862369 62.47886275 71 58 C71.66 58 72.32 58 73 58 C73.95141338 77.32519217 73.69576955 89.70597343 61.15625 105.046875 C58.98643374 108.71210516 59.01710678 112.82594497 59 117 C59.66 117 60.32 117 61 117 C61.13921875 115.52080078 61.13921875 115.52080078 61.28125 114.01171875 C61.92344595 109.5732082 63.57074696 105.83323245 65.5 101.8125 C65.85239746 101.07217529 66.20479492 100.33185059 66.56787109 99.5690918 C71.1359806 90.29745451 77.20420857 81.84508516 85 75 C85.66 75 86.32 75 87 75 C86.43938457 80.23241066 84.69990445 84.1538479 82.3125 88.75 C81.7712146 89.80779663 81.7712146 89.80779663 81.21899414 90.88696289 C76.15886968 100.68093301 70.53075495 109.60267515 63.3046875 117.9609375 C61.72325822 120.4325126 61.68444455 121.84740987 61.8125 124.75 C61.83957031 125.54921875 61.86664063 126.3484375 61.89453125 127.171875 C61.94673828 128.07679688 61.94673828 128.07679688 62 129 C63.81286646 126.28070031 65.23961158 123.54112968 66.66333008 120.60644531 C72.92153452 107.73498216 80.03019427 97.26390029 90 87 C90.89460938 86.05898438 91.78921875 85.11796875 92.7109375 84.1484375 C95 82 95 82 97 82 C94.18760514 100.11316213 76.68069023 121.31930977 64 134 C63.92794489 135.68608966 63.91613932 137.37500659 63.9375 139.0625 C63.94652344 139.98160156 63.95554688 140.90070313 63.96484375 141.84765625 C63.97644531 142.55792969 63.98804688 143.26820313 64 144 C64.66 144 65.32 144 66 144 C66.10441406 143.14535156 66.20882812 142.29070312 66.31640625 141.41015625 C70.00197991 123.02440878 86.71714645 106.05685384 101 95 C101.66 95.33 102.32 95.66 103 96 C94.96074384 109.20687679 86.81496575 122.11630557 77.30175781 134.31298828 C74.65960513 137.73708337 72.15271825 141.25946118 69.62109375 144.765625 C69.08613281 145.50296875 68.55117187 146.2403125 68 147 C67.47535156 147.75796875 66.95070313 148.5159375 66.41015625 149.296875 C65.94480469 149.85890625 65.47945313 150.4209375 65 151 C64.34 151 63.68 151 63 151 C62.505 147.535 62.505 147.535 62 144 C61.11699219 144.0721875 60.23398438 144.144375 59.32421875 144.21875 C55.33916518 143.95651381 53.92154156 142.94584207 50.8125 140.5 C49.84957031 139.76523437 48.88664062 139.03046875 47.89453125 138.2734375 C46.09919464 136.86333506 44.3047501 135.45209506 42.51171875 134.0390625 C32.80670776 126.64333095 21.87817401 121.43069218 11 116 C13.48490868 113.51509132 15.05709028 113.69354429 18.45922852 113.61962891 C31.24723123 113.65134304 31.24723123 113.65134304 37 118 C37.56460938 118.40089844 38.12921875 118.80179687 38.7109375 119.21484375 C42.53745398 122.20160435 45.42938388 125.70379866 48.4375 129.5 C52.16319906 134.19233232 55.97500759 137.75497765 61 141 C60.67 138.36 60.34 135.72 60 133 C59.2884375 132.74863281 58.576875 132.49726563 57.84375 132.23828125 C50.55503627 129.06448695 44.56016818 123.56016818 39 118 C37.23545973 116.78249527 35.46374569 115.57536302 33.6875 114.375 C27.72475945 110.15745181 23.91491609 105.1023334 20 99 C22.37607916 98.15292245 23.59590713 97.85613036 26.0078125 98.71484375 C38.91608239 106.16925053 49.16759951 116.07625934 58 128 C58 125.36 58 122.72 58 120 C57.4121875 119.72800781 56.824375 119.45601563 56.21875 119.17578125 C47.88526169 114.75961931 41.64145401 106.40567431 35.40087891 99.50292969 C34.06850551 98.07349598 32.66632542 96.71008364 31.26171875 95.3515625 C28.40776146 92.38423558 27.11665191 90.53980521 26.8046875 86.421875 C26.82789062 85.54015625 26.85109375 84.6584375 26.875 83.75 C26.89304687 82.85796875 26.91109375 81.9659375 26.9296875 81.046875 C26.95289062 80.37140625 26.97609375 79.6959375 27 79 C35.24944465 86.98333353 42.42837383 95.59485891 49 105 C49.67804688 105.96292969 50.35609375 106.92585938 51.0546875 107.91796875 C52.70968073 110.27417398 54.35811083 112.63465341 56 115 C56.66923762 111.71256453 56.66923762 111.71256453 56 108 C54.12842968 106.48046314 52.15930133 105.45071772 50.04296875 104.30078125 C46.72089252 102.18557784 45.38661763 99.60060933 44 96 C42.68523227 88.06636731 42.67415617 80.04821931 42.48242188 72.0234375 C42.31217001 66.67817128 42.16111182 61.98718112 40 57 C39.45730469 57.49371094 38.91460937 57.98742187 38.35546875 58.49609375 C37.64003906 59.13675781 36.92460937 59.77742188 36.1875 60.4375 C35.47980469 61.07558594 34.77210937 61.71367187 34.04296875 62.37109375 C28.53206075 66.7650682 19.69664375 65.46876506 13 65 C8.63152494 63.85258408 6.06801199 61.47584167 3.6875 57.6875 C-0.07066281 50.66432697 -0.27630774 43.81832487 -0.1953125 36.03515625 C-0.1924826 35.00184677 -0.18965271 33.96853729 -0.18673706 32.90391541 C-0.17559647 29.62332278 -0.15050304 26.34300927 -0.125 23.0625 C-0.1149623 20.83008208 -0.10583783 18.59765986 -0.09765625 16.36523438 C-0.07567716 10.9100497 -0.04118949 5.45507208 0 0 Z " fill="#9FB48E" transform="translate(93,227)"/>
<path d="M0 0 C3.68745115 2.77636138 6.54239048 6.11206117 9.33984375 9.76171875 C4.18857015 14.06726086 -2.12948885 16.43125682 -8.66015625 17.76171875 C-11.71810634 16.69633124 -12.51494004 15.34697932 -14.66015625 12.76171875 C-20.12017043 10.00375937 -25.68071046 10.00168543 -31.66015625 10.76171875 C-36.78323598 12.76460291 -40.76030445 16.07734277 -43.66015625 20.76171875 C-47.09170295 30.50731139 -47.97230511 44.17284525 -43.59765625 53.69921875 C-40.4450277 58.78294457 -36.36023915 61.86169112 -30.66015625 63.76171875 C-23.95929654 64.39068031 -17.7208872 63.82919074 -11.66015625 60.76171875 C-6.91367765 56.60854998 -7.52147464 54.65226584 -6.66015625 47.76171875 C-12.93015625 47.76171875 -19.20015625 47.76171875 -25.66015625 47.76171875 C-25.66015625 42.48171875 -25.66015625 37.20171875 -25.66015625 31.76171875 C-12.46015625 31.76171875 0.73984375 31.76171875 14.33984375 31.76171875 C14.33984375 47.60171875 14.33984375 63.44171875 14.33984375 79.76171875 C9.71984375 79.76171875 5.09984375 79.76171875 0.33984375 79.76171875 C-0.65015625 77.12171875 -1.64015625 74.48171875 -2.66015625 71.76171875 C-3.65015625 72.68984375 -4.64015625 73.61796875 -5.66015625 74.57421875 C-12.26137654 80.76286278 -19.94704461 81.26419071 -28.53515625 81.19921875 C-29.46457031 81.21919922 -30.39398438 81.23917969 -31.3515625 81.25976562 C-42.19304298 81.25220532 -49.72869165 77.56693345 -57.46875 70.10546875 C-66.92051452 59.99662969 -69.28372657 47.56732974 -69.13037109 34.07958984 C-68.69770068 21.93011211 -64.68801464 11.53645512 -55.81640625 2.984375 C-39.51563758 -10.1430883 -17.4907075 -10.96968543 0 0 Z " fill="#FCFEFC" transform="translate(370.66015625,211.23828125)"/>
<path d="M0 0 C8.39180532 10.50888691 15.192011 26.9099276 14.37890625 40.6015625 C11.98143845 55.77728649 6.23844838 66.85520823 -6.1875 76.3125 C-10.9143508 79.5822013 -15.86548219 81.81538293 -21.125 84.0625 C-30.51488007 88.09071151 -37.43173538 91.48278204 -42 101 C-42.33 101 -42.66 101 -43 101 C-43.27889701 95.61031529 -42.43570979 91.29553343 -40.5 86.3125 C-40.23227783 85.61552002 -39.96455566 84.91854004 -39.6887207 84.20043945 C-35.20454955 73.0507121 -27.65272894 64.12037559 -20 55 C-17.7397291 52.2791876 -15.49312909 49.54745169 -13.25 46.8125 C-12.70706299 46.15926758 -12.16412598 45.50603516 -11.60473633 44.83300781 C-8.00126848 40.43731958 -4.89672835 35.88964509 -2 31 C-5.59582445 34.51672005 -9.09936979 38.05470997 -12.375 41.875 C-14.87330328 44.78413538 -17.48534186 47.46856691 -20.25 50.125 C-29.1164212 58.91563982 -36.55474159 68.7418708 -42 80 C-45.51775151 76.48224849 -44.36932989 71.26288859 -44.375 66.5 C-44.39949219 65.448125 -44.42398438 64.39625 -44.44921875 63.3125 C-44.4883519 52.77263907 -41.43576837 43.66060802 -34 36 C-27.845585 30.94019965 -20.8357264 27.01683328 -13.98046875 22.9921875 C-7.09221388 18.38798044 -2.39851367 12.79839993 -0.75 4.625 C-0.48661558 3.08556349 -0.23197743 1.54448133 0 0 Z " fill="#026938" transform="translate(289,326)"/>
<path d="M0 0 C6.6 0 13.2 0 20 0 C20.02578125 3.20203125 20.0515625 6.4040625 20.078125 9.703125 C20.11653743 12.80428867 20.16170034 15.90528563 20.20751953 19.00634766 C20.23574499 21.16154013 20.25695165 23.31683643 20.27099609 25.47216797 C20.29240347 28.5705283 20.3390432 31.66763827 20.390625 34.765625 C20.39185364 35.72929993 20.39308228 36.69297485 20.39434814 37.68585205 C20.4535048 43.01109162 20.4535048 43.01109162 22.89941406 47.60644531 C26.47328729 49.97739701 29.87627328 49.76561838 34 49 C37.03215675 46.80168636 37.81654398 45.55036806 39 42 C39.11294746 40.60420727 39.17589187 39.20400091 39.20532227 37.80395508 C39.2352401 36.54298759 39.2352401 36.54298759 39.26576233 35.25654602 C39.29083107 33.90172371 39.29083107 33.90172371 39.31640625 32.51953125 C39.33718735 31.59154221 39.35796844 30.66355316 39.37937927 29.70744324 C39.44477323 26.7425376 39.50371262 23.77754328 39.5625 20.8125 C39.60569487 18.8027252 39.64930947 16.79295937 39.69335938 14.78320312 C39.80123429 9.85555833 39.90038332 4.92784639 40 0 C46.6 0 53.2 0 60 0 C60 21.12 60 42.24 60 64 C54.39 64 48.78 64 43 64 C42.01 61.69 41.02 59.38 40 57 C39.45730469 57.49371094 38.91460937 57.98742187 38.35546875 58.49609375 C37.64003906 59.13675781 36.92460937 59.77742188 36.1875 60.4375 C35.47980469 61.07558594 34.77210937 61.71367187 34.04296875 62.37109375 C28.53206075 66.7650682 19.69664375 65.46876506 13 65 C8.63152494 63.85258408 6.06801199 61.47584167 3.6875 57.6875 C-0.07066281 50.66432697 -0.27630774 43.81832487 -0.1953125 36.03515625 C-0.1924826 35.00184677 -0.18965271 33.96853729 -0.18673706 32.90391541 C-0.17559647 29.62332278 -0.15050304 26.34300927 -0.125 23.0625 C-0.1149623 20.83008208 -0.10583783 18.59765986 -0.09765625 16.36523438 C-0.07567716 10.9100497 -0.04118949 5.45507208 0 0 Z " fill="#FBFDFA" transform="translate(93,227)"/>
<path d="M0 0 C5.06077599 2.26346943 7.4159559 6.44173027 9.55078125 11.35668945 C10.87462963 16.35074403 10.74632378 21.09860854 10.6953125 26.2421875 C10.6924826 27.32130402 10.68965271 28.40042053 10.68673706 29.51223755 C10.6755766 32.94577299 10.6504793 36.37904391 10.625 39.8125 C10.61496487 42.14582956 10.60583995 44.47916322 10.59765625 46.8125 C10.57565075 52.52093466 10.54114908 58.22917254 10.5 63.9375 C4.23 63.9375 -2.04 63.9375 -8.5 63.9375 C-8.53738281 60.97523438 -8.57476562 58.01296875 -8.61328125 54.9609375 C-8.65953636 52.08146928 -8.71075555 49.20212899 -8.76245117 46.32275391 C-8.79563713 44.32673971 -8.82368868 42.33063311 -8.84643555 40.33447266 C-8.88009793 37.4595616 -8.93241977 34.58549257 -8.98828125 31.7109375 C-8.99467117 30.82320648 -9.0010611 29.93547546 -9.00764465 29.02084351 C-9.12654011 23.97279244 -9.58509971 20.25418319 -12.5 15.9375 C-16.10572704 14.73559099 -18.7102435 14.61079685 -22.5 14.9375 C-25.70291038 16.78807044 -27.14535296 18.11425121 -28.61083984 21.51611328 C-29.71259429 25.75553856 -29.85277001 29.69244681 -29.9140625 34.0546875 C-29.93342865 34.91184357 -29.9527948 35.76899963 -29.9727478 36.65213013 C-30.03221256 39.37215428 -30.07879569 42.09222152 -30.125 44.8125 C-30.1632103 46.66408028 -30.20226378 48.51564337 -30.2421875 50.3671875 C-30.33946373 54.89053217 -30.41929386 59.4137083 -30.5 63.9375 C-36.77 63.9375 -43.04 63.9375 -49.5 63.9375 C-49.5 43.1475 -49.5 22.3575 -49.5 0.9375 C-43.89 0.9375 -38.28 0.9375 -32.5 0.9375 C-31.84 2.9175 -31.18 4.8975 -30.5 6.9375 C-29.89671875 6.52757812 -29.2934375 6.11765625 -28.671875 5.6953125 C-27.87265625 5.15648437 -27.0734375 4.61765625 -26.25 4.0625 C-25.46109375 3.52882812 -24.6721875 2.99515625 -23.859375 2.4453125 C-16.62190261 -2.17995959 -8.27469673 -2.55820777 0 0 Z " fill="#FEFEFE" transform="translate(69.5,227.0625)"/>
<path d="M0 0 C1.76462683 3.08809695 2 4.23312136 2 8 C3.19625 7.505 4.3925 7.01 5.625 6.5 C9.21101476 5.14088765 12.13404799 4.7100536 16 5 C13.93772868 8.60897481 11.62057844 11.77842113 9 15 C10.07378906 15.6290625 11.14757812 16.258125 12.25390625 16.90625 C30.83591274 27.99224237 30.83591274 27.99224237 33.9375 38.75 C35.17464749 44.76009306 35.73657292 50.88740138 35 57 C34.34 57.99 33.68 58.98 33 60 C32.01719585 58.39805929 31.03888283 56.79336258 30.0625 55.1875 C29.24458984 53.84751953 29.24458984 53.84751953 28.41015625 52.48046875 C27 50 27 50 26 47 C25.01 47.495 25.01 47.495 24 48 C25.42036952 51.76020529 27.1584904 55.21331387 29.0625 58.75 C31.74436841 64.02238363 32.80384148 68.11524454 33 74 C32.525625 73.34 32.05125 72.68 31.5625 72 C28.34616565 69.48969026 26.49218303 69.35518034 22.49609375 69.55859375 C14.59830127 70.95522998 9.46630377 75.29738044 4.203125 81.03125 C1.60590286 83.35217191 -0.94693727 84.52850667 -4.125 85.9375 C-10.10362261 88.74163273 -13.5292711 91.80841243 -16 98 C-16.68720386 101.35187191 -16.98572573 104.58131308 -17 108 C-20.39417765 104.87378374 -22.6062718 102.43458973 -24 98 C-19.22545666 92.08939169 -14.11133002 87.48653387 -8 83 C-7.25878906 82.42765625 -6.51757812 81.8553125 -5.75390625 81.265625 C-0.38548951 77.1284965 -0.38548951 77.1284965 3 76 C4.07062568 74.23648473 4.07062568 74.23648473 5 72 C6.03517975 70.07982203 7.07722246 68.1633329 8.125 66.25 C8.66382813 65.26515625 9.20265625 64.2803125 9.7578125 63.265625 C10.16773438 62.51796875 10.57765625 61.7703125 11 61 C8.69 59.35 6.38 57.7 4 56 C-0.42291078 58.05477149 -3.76289653 60.96405078 -7.4375 64.125 C-8.09298828 64.66898437 -8.74847656 65.21296875 -9.42382812 65.7734375 C-18.3455836 73.43344019 -23.12514716 83.74015969 -26 95 C-28.60045875 92.6975881 -29.84739183 90.50103323 -31.1875 87.3125 C-31.53167969 86.50425781 -31.87585938 85.69601562 -32.23046875 84.86328125 C-32.48441406 84.24839844 -32.73835937 83.63351562 -33 83 C-32.410979 82.42145264 -31.82195801 81.84290527 -31.21508789 81.24682617 C-28.97985878 79.04619067 -26.74955588 76.84069888 -24.5222168 74.63208008 C-23.10370567 73.22827838 -21.67985854 71.82987502 -20.25585938 70.43164062 C-14.03967618 64.25907976 -8.40679772 57.88905072 -3 51 C-4.12451727 48.0280615 -5.22293791 45.66559313 -7 43 C-7.67160156 43.68964844 -8.34320313 44.37929688 -9.03515625 45.08984375 C-11.1366551 47.19578082 -13.3139061 49.1766666 -15.55859375 51.12890625 C-24.39469551 58.89181097 -31.92345507 66.07723848 -33.875 78.25 C-33.91625 79.1575 -33.9575 80.065 -34 81 C-36.67477931 78.32522069 -37.6464114 75.507025 -39 72 C-39 69 -39 69 -37.63671875 67.59765625 C-36.99347656 67.09105469 -36.35023438 66.58445312 -35.6875 66.0625 C-29.90401528 61.18682858 -24.90145552 55.7374672 -20 50 C-19.52111328 49.44892578 -19.04222656 48.89785156 -18.54882812 48.33007812 C-11.90782688 40.53568725 -9.13903057 35.0892667 -9.1171875 24.5390625 C-8.82497359 15.71420229 -4.05474168 7.66080293 0 0 Z " fill="#86BD43" transform="translate(206,333)"/>
<path d="M0 0 C6.27 0 12.54 0 19 0 C19 5.28 19 10.56 19 16 C23.62 16 28.24 16 33 16 C33 20.95 33 25.9 33 31 C28.38 31 23.76 31 19 31 C19.09686684 35.09389873 19.19954872 39.18698762 19.31738281 43.28027344 C19.35569327 44.67308572 19.39054259 46.06599765 19.421875 47.45898438 C19.46747907 49.45986308 19.52651623 51.46042146 19.5859375 53.4609375 C19.63306885 55.26763916 19.63306885 55.26763916 19.68115234 57.11083984 C19.70915226 60.1260018 19.70915226 60.1260018 22 62 C24.66242821 62.46290221 24.66242821 62.46290221 27.625 62.625 C29.39875 62.74875 31.1725 62.8725 33 63 C33 68.28 33 73.56 33 79 C29.29122416 79.08114826 25.58423489 79.14057594 21.875 79.1875 C20.30492187 79.22520508 20.30492187 79.22520508 18.703125 79.26367188 C8.52269687 79.36032151 8.52269687 79.36032151 4 76 C-0.3077612 70.88286896 -0.54668137 67.04372301 -0.390625 60.6640625 C-0.38213531 59.34503433 -0.38213531 59.34503433 -0.37347412 57.99935913 C-0.35119084 55.20733818 -0.30101063 52.41662908 -0.25 49.625 C-0.22992454 47.72527903 -0.21167561 45.82553782 -0.1953125 43.92578125 C-0.15135256 39.28335334 -0.08238182 34.64189863 0 30 C-3.63 30 -7.26 30 -11 30 C-11 25.38 -11 20.76 -11 16 C-7.37 16 -3.74 16 0 16 C0 10.72 0 5.44 0 0 Z " fill="#FDFEFD" transform="translate(172,212)"/>
<path d="M0 0 C5.81348525 3.72442884 8.86192545 9.07705105 11.5 15.3125 C13.12323491 25.05190948 12.91733862 34.2389589 8.125 43.0625 C4.3962274 48.10188079 0.1988337 51.2822384 -5.875 53.0625 C-11.98028296 53.84636092 -17.45444419 53.03429595 -22.875 50.0625 C-28.4978898 45.33416085 -32.80142729 39.44496912 -33.875 32.0625 C-34.64924908 21.56259586 -33.72238808 12.43152988 -26.875 4.0625 C-19.15852227 -2.45324435 -9.44571401 -4.67466458 0 0 Z " fill="#7FD959" transform="translate(448.875,222.9375)"/>
<path d="M0 0 C0 6.27 0 12.54 0 19 C-2.536875 19.12375 -2.536875 19.12375 -5.125 19.25 C-10.2972565 19.70990425 -13.09555074 20.60929406 -17 24 C-18.66349319 27.32698637 -18.24378057 31.06429385 -18.31640625 34.7265625 C-18.33718735 35.58937836 -18.35796844 36.45219421 -18.37937927 37.34115601 C-18.44486034 40.10235493 -18.50375298 42.86365038 -18.5625 45.625 C-18.6056866 47.49480172 -18.64930093 49.36459362 -18.69335938 51.234375 C-18.80134674 55.8228191 -18.90043062 60.41133453 -19 65 C-25.6 65 -32.2 65 -39 65 C-39 44.21 -39 23.42 -39 2 C-33.72 2 -28.44 2 -23 2 C-22.34 4.97 -21.68 7.94 -21 11 C-19.18738027 9.18738027 -17.390562 7.35848631 -15.625 5.5 C-9.98656342 0.1300604 -8.40731325 0 0 0 Z " fill="#FCFEFB" transform="translate(253,226)"/>
<path d="M0 0 C10.56 0 21.12 0 32 0 C32 21.12 32 42.24 32 64 C25.4 64 18.8 64 12 64 C12 48.16 12 32.32 12 16 C8.04 16 4.08 16 0 16 C0 10.72 0 5.44 0 0 Z " fill="#FAFDF9" transform="translate(260,227)"/>
<path d="M0 0 C4.38853294 4.08084982 7.69870725 8.59984441 11.125 13.5 C18.04379899 23.21664002 24.97024872 32.83325937 34.25 40.4375 C36.4453125 42.28515625 36.4453125 42.28515625 38 44 C38.12927063 47.49030691 37.52037147 48.95925707 36 52 C36.99 52.495 36.99 52.495 38 53 C37.505 53.928125 37.01 54.85625 36.5 55.8125 C34.78710148 58.86527516 34.78710148 58.86527516 35 62 C33.35 62 31.7 62 30 62 C29.731875 62.763125 29.46375 63.52625 29.1875 64.3125 C28.0387516 66.91229902 27.0314124 68.10215992 25 70 C24.78085937 69.17757812 24.56171875 68.35515625 24.3359375 67.5078125 C20.16218665 52.81485219 13.30001379 44.72955292 2 35 C1.20851563 34.3090625 0.41703125 33.618125 -0.3984375 32.90625 C-1.91990528 31.58971462 -3.4572863 30.29157426 -5 29 C-4.72285156 28.11957031 -4.44570313 27.23914063 -4.16015625 26.33203125 C-3.79792969 25.17058594 -3.43570312 24.00914062 -3.0625 22.8125 C-2.70285156 21.66394531 -2.34320313 20.51539063 -1.97265625 19.33203125 C-0.55313145 14.46916116 0.12359795 10.25863002 0.0625 5.1875 C0.05347656 4.21167969 0.04445313 3.23585938 0.03515625 2.23046875 C0.02355469 1.49441406 0.01195312 0.75835937 0 0 Z " fill="#9FB38E" transform="translate(302,358)"/>
<path d="M0 0 C2 2 2 2 2.30078125 4.74609375 C1.95723587 8.46263009 0.87722081 10.74472702 -0.8125 14.0625 C-4.51145877 21.85843416 -5.38580166 29.8154969 -6.359375 38.3125 C-6.80694635 42.07930857 -7.620521 45.44608801 -9 49 C-9.66 48.34 -10.32 47.68 -11 47 C-11.33 48.32 -11.66 49.64 -12 51 C-15.90784347 49.5088492 -17.34522468 47.39120154 -19.5 43.875 C-20.35078125 42.50988281 -20.35078125 42.50988281 -21.21875 41.1171875 C-21.8065625 40.08851563 -22.394375 39.05984375 -23 38 C-23.36319336 37.40606445 -23.72638672 36.81212891 -24.10058594 36.20019531 C-27.19995094 30.73993226 -27.49745727 26.19594942 -27.25 20 C-27.23195313 19.12988281 -27.21390625 18.25976562 -27.1953125 17.36328125 C-27.14868436 15.24170093 -27.07696077 13.12069665 -27 11 C-28.65 11 -30.3 11 -32 11 C-32 10.67 -32 10.34 -32 10 C-30.31583984 9.96132813 -30.31583984 9.96132813 -28.59765625 9.921875 C-16.93771006 9.53125704 -8.80585088 8.12847774 0 0 Z " fill="#A0B58F" transform="translate(368,282)"/>
<path d="M0 0 C3.09133781 2.06089188 4.5494329 3.5523199 5.66015625 7.12109375 C6.39667711 11.36145171 6.2440605 13.50283972 4.3125 17.4375 C0.83749019 21.28818654 -0.69102893 21.85221294 -5.875 22.4375 C-10.66712268 22.33897037 -12.72173592 20.35822174 -16 17 C-17.73125121 13.53749757 -17.47815224 9.78591771 -17 6 C-12.82098293 -1.01477865 -7.51954343 -2.02397693 0 0 Z " fill="#FBFEFA" transform="translate(288,195)"/>
<path d="M0 0 C0.33 0 0.66 0 1 0 C3.22836277 39.63302352 3.22836277 39.63302352 -0.265625 48.87890625 C-1.52256215 52.50931515 -1.69243656 56.1862133 -2 60 C-2.33 59.34 -2.66 58.68 -3 58 C-3.66 58 -4.32 58 -5 58 C-6.68877614 52.00962424 -8.10028206 46.29776485 -8.375 40.0625 C-8.73174074 34.06132792 -10.61130654 29.12229559 -12.94140625 23.6171875 C-14 21 -14 21 -14 19 C-9.38 19 -4.76 19 0 19 C0 12.73 0 6.46 0 0 Z " fill="#9FB58E" transform="translate(153,272)"/>
<path d="M0 0 C4.21234518 0.54890003 7.53278526 1.50462615 11.3125 3.4375 C12.17488281 3.86933594 13.03726563 4.30117188 13.92578125 4.74609375 C16 6 16 6 17 8 C15.96552734 8.11214844 15.96552734 8.11214844 14.91015625 8.2265625 C4.54912541 9.67625406 -1.37205035 14.46361499 -8.89453125 21.35546875 C-11.20220389 23.15793662 -13.44473481 24.20914474 -16.125 25.375 C-21.63052581 27.97930882 -24.63465991 31.39001123 -27 37 C-27.69544436 40.35120166 -27.98572278 43.58060669 -28 47 C-31.39417765 43.87378374 -33.6062718 41.43458973 -35 37 C-30.22545666 31.08939169 -25.11133002 26.48653387 -19 22 C-18.25878906 21.42765625 -17.51757812 20.8553125 -16.75390625 20.265625 C-11.38548951 16.1284965 -11.38548951 16.1284965 -8 15 C-6.92937432 13.23648473 -6.92937432 13.23648473 -6 11 C-4.96482025 9.07982203 -3.92277754 7.1633329 -2.875 5.25 C-2.33617187 4.26515625 -1.79734375 3.2803125 -1.2421875 2.265625 C-0.83226562 1.51796875 -0.42234375 0.7703125 0 0 Z " fill="#7FD759" transform="translate(217,394)"/>
<path d="M0 0 C4.16136054 1.1504938 8.35970691 1.46409355 12.65625 1.734375 C8.29110142 6.96657364 0.31306066 8.20301287 -6.09375 9.484375 C-14.1595704 10.10482272 -22.38615199 10.37277367 -29.34375 5.734375 C-29.28125 3.984375 -29.28125 3.984375 -28.34375 1.734375 C-20.09999454 -5.01051583 -9.51310971 -2.96585185 0 0 Z " fill="#9FB48E" transform="translate(342.34375,449.265625)"/>
<path d="M0 0 C0.66 0.99 1.32 1.98 2 3 C16.02587991 22.26040717 16.02587991 22.26040717 34 37 C33.52467862 42.07009471 30.95637706 45.97493258 28 50 C27.67 50 27.34 50 27 50 C26.78085937 49.17757812 26.56171875 48.35515625 26.3359375 47.5078125 C22.16218665 32.81485219 15.30001379 24.72955292 4 15 C3.20851563 14.3090625 2.41703125 13.618125 1.6015625 12.90625 C0.08009472 11.58971462 -1.4572863 10.29157426 -3 9 C-2.01 6.03 -1.02 3.06 0 0 Z " fill="#7FD659" transform="translate(300,378)"/>
<path d="M0 0 C1.87988001 2.34985001 3.27104998 4.54209996 4.625 7.25 C8.35574258 13.86358912 14.81989465 18.26929811 21 22.4375 C26.12362342 25.95245045 31.45155056 29.83696046 35 35 C34.84874305 38.86868729 34.10644933 39.88316537 31.4375 42.8125 C30.633125 43.534375 29.82875 44.25625 29 45 C28.91363281 44.443125 28.82726562 43.88625 28.73828125 43.3125 C27.40501423 36.07126995 25.03166364 30.42533091 19.1875 25.75 C17.52441152 24.83693181 15.85184206 23.93346754 14.12109375 23.15625 C9.01840223 20.83956814 5.86056576 17.97869692 2.03125 13.90625 C-1.00554336 11.05633624 -4.19045611 9.63266167 -8 8 C-5.33333333 5.33333333 -2.66666667 2.66666667 0 0 Z " fill="#7ED659" transform="translate(290,395)"/>
<path d="M0 0 C2.475 2.475 2.475 2.475 5 5 C3.71387728 6.18537644 2.42741752 7.37038896 1.1394043 8.55371094 C0.03674803 9.56851596 -1.06331169 10.58614885 -2.16088867 11.60644531 C-5.11052515 14.33398234 -8.09890163 16.83504738 -11.3125 19.25 C-18.46926065 25.40571062 -21.65423453 36.16352425 -24 45 C-26.60045875 42.6975881 -27.84739183 40.50103323 -29.1875 37.3125 C-29.53167969 36.50425781 -29.87585938 35.69601562 -30.23046875 34.86328125 C-30.48441406 34.24839844 -30.73835937 33.63351562 -31 33 C-30.410979 32.42145264 -29.82195801 31.84290527 -29.21508789 31.24682617 C-26.97985878 29.04619067 -24.74955588 26.84069888 -22.5222168 24.63208008 C-21.10370567 23.22827838 -19.67985854 21.82987502 -18.25585938 20.43164062 C-12.03401068 14.25345403 -6.45144169 7.85893079 -1 1 C-0.67 0.67 -0.34 0.34 0 0 Z " fill="#7FD659" transform="translate(204,383)"/>
<path d="M0 0 C4.38853294 4.08084982 7.69870725 8.59984441 11.125 13.5 C18.04379899 23.21664002 24.97024872 32.83325937 34.25 40.4375 C36.4375 42.29296875 36.4375 42.29296875 38 44 C38.29453615 47.82896995 37.51311017 49.22007253 35.4375 52.375 C34.7259375 53.179375 34.7259375 53.179375 34 54 C33.5875 52.845 33.175 51.69 32.75 50.5 C28.4992094 39.32199509 22.91142773 32.03644445 13.28125 24.86328125 C8.39618862 20.8732568 1.57391078 14.74124861 0.5859375 8.30078125 C0.48152344 6.82158203 0.48152344 6.82158203 0.375 5.3125 C0.30023438 4.31863281 0.22546875 3.32476562 0.1484375 2.30078125 C0.09945313 1.54152344 0.05046875 0.78226562 0 0 Z " fill="#7FD659" transform="translate(302,358)"/>
<path d="M0 0 C1.45089193 2.30435777 2.00798044 3.68876297 1.9375 6.4375 C0.09796895 11.46555155 -4.80344097 14.72915073 -8.75854492 18.19775391 C-17.81917769 26.2373033 -23.47741648 33.66182317 -25 46 C-27.67477931 43.32522069 -28.6464114 40.507025 -30 37 C-30 34 -30 34 -28.63671875 32.59765625 C-27.99347656 32.09105469 -27.35023438 31.58445312 -26.6875 31.0625 C-17.28139391 23.13283737 -9.85579596 13.81914708 -2.8984375 3.73828125 C-1 1 -1 1 0 0 Z " fill="#80D65A" transform="translate(197,368)"/>
<path d="M0 0 C2 2 2 2 2.30078125 4.74609375 C1.95723587 8.46263009 0.87722081 10.74472702 -0.8125 14.0625 C-4.51145877 21.85843416 -5.38580166 29.8154969 -6.359375 38.3125 C-6.80694635 42.07930857 -7.620521 45.44608801 -9 49 C-9.33 49 -9.66 49 -10 49 C-10.125 41.375 -10.125 41.375 -9 38 C-8.94201477 35.7246669 -8.93863779 33.44779597 -8.96484375 31.171875 C-8.96112907 29.80077376 -8.95519842 28.42967707 -8.94726562 27.05859375 C-8.93673624 24.90717005 -8.93733798 22.75905445 -8.97583008 20.60791016 C-9.16787908 8.61244656 -9.16787908 8.61244656 -6.15673828 4.45507812 C-4.18154989 2.72586316 -2.27805636 1.29693412 0 0 Z " fill="#80D85B" transform="translate(368,282)"/>
<path d="M0 0 C2.64 0 5.28 0 8 0 C8.02505615 0.76143311 8.0501123 1.52286621 8.07592773 2.30737305 C8.19219048 5.76757376 8.31477978 9.22752254 8.4375 12.6875 C8.47681641 13.88568359 8.51613281 15.08386719 8.55664062 16.31835938 C8.61948242 18.05375977 8.61948242 18.05375977 8.68359375 19.82421875 C8.73858032 21.41882935 8.73858032 21.41882935 8.79467773 23.0456543 C8.98505971 25.78502687 9.42186763 28.32062349 10 31 C10.11678799 33.67678073 10.0454506 36.31841457 10 39 C6.40396812 33.60595218 5.991373 27.62289206 5.6875 21.25 C5.2822915 15.18745742 3.41423606 10.18264271 1.05859375 4.6171875 C0 2 0 2 0 0 Z " fill="#7ED858" transform="translate(139,291)"/>
<path d="M0 0 C2.31 0 4.62 0 7 0 C6.96519531 1.24394531 6.93039062 2.48789062 6.89453125 3.76953125 C6.7338212 12.09297238 6.66467547 19.5112595 9.33203125 27.48828125 C10.51507982 31.93682061 10.23840001 36.43508135 10 41 C7.80710128 37.25171564 6.98923458 33.21561074 6.0546875 29.0234375 C5.87994904 28.25697906 5.70521057 27.49052063 5.525177 26.70083618 C5.1580681 25.08593957 4.7934445 23.47047622 4.43115234 21.85449219 C3.87514169 19.37563169 3.31127577 16.89865878 2.74609375 14.421875 C2.39016442 12.85166683 2.0346802 11.28135769 1.6796875 9.7109375 C1.51097137 8.96822601 1.34225525 8.22551453 1.16842651 7.46029663 C0 2.23303675 0 2.23303675 0 0 Z " fill="#81D75B" transform="translate(346,292)"/>
<path d="M0 0 C4.66668983 0.93333797 9.48984006 0.58741417 14.2265625 0.4453125 C14.92366981 1.73181956 15.60899126 3.02471915 16.2890625 4.3203125 C16.86333984 5.39925781 16.86333984 5.39925781 17.44921875 6.5 C17.83400391 7.46292969 17.83400391 7.46292969 18.2265625 8.4453125 C17.8965625 9.1053125 17.5665625 9.7653125 17.2265625 10.4453125 C16.58589844 10.03539062 15.94523437 9.62546875 15.28515625 9.203125 C3.23085123 1.69388581 -8.46264714 1.35114162 -22.3359375 0.8828125 C-23.53541016 0.83962891 -24.73488281 0.79644531 -25.97070312 0.75195312 C-28.90485543 0.64674448 -31.83908 0.54460367 -34.7734375 0.4453125 C-34.7734375 0.1153125 -34.7734375 -0.2146875 -34.7734375 -0.5546875 C-7.30385303 -2.13404759 -7.30385303 -2.13404759 0 0 Z " fill="#81D55C" transform="translate(153.7734375,409.5546875)"/>
<path d="M0 0 C1.23363281 0.05671875 2.46726562 0.1134375 3.73828125 0.171875 C6.7429226 0.31162576 9.74649922 0.46283916 12.75 0.625 C12.75 0.955 12.75 1.285 12.75 1.625 C11.67854736 1.654729 11.67854736 1.654729 10.58544922 1.68505859 C-13.13291744 1.43995783 -13.13291744 1.43995783 -35.26171875 8.50390625 C-37.25 9.625 -37.25 9.625 -40.25 10.625 C-39.19124926 7.22187262 -38.24097846 4.61146769 -36.25 1.625 C-34.2890625 1.40234375 -34.2890625 1.40234375 -31.875 1.5625 C-27.98995418 1.71804653 -24.59128004 1.3896886 -20.7890625 0.60546875 C-13.78546633 -0.62223824 -7.07455471 -0.3840692 0 0 Z " fill="#80D65B" transform="translate(376.25,408.375)"/>
<path d="M0 0 C0 4.1387174 -1.75259851 5.67879386 -4.25 8.9375 C-5.43335938 10.49791016 -5.43335938 10.49791016 -6.640625 12.08984375 C-9.83366438 16.02827808 -12.42713022 18.82158565 -17 21 C-18.28016835 22.00435972 -19.53128122 23.04690261 -20.75 24.125 C-21.36359375 24.66382813 -21.9771875 25.20265625 -22.609375 25.7578125 C-23.06828125 26.16773438 -23.5271875 26.57765625 -24 27 C-22.34266114 22.65080502 -19.08852713 19.90858379 -15.8125 16.75 C-11.4465801 12.47066493 -7.22110839 8.16014587 -3.26953125 3.48828125 C-2 2 -2 2 0 0 Z " fill="#74CB57" transform="translate(287,356)"/>
<path d="M0 0 C-1.96318174 3.53372712 -4.04070881 6.24479785 -7 9 C-8.9375 8.25 -8.9375 8.25 -11 7 C-11.75 4.875 -11.75 4.875 -12 3 C-7.77050005 0.58314288 -4.87664009 -0.34833144 0 0 Z " fill="#9FB48D" transform="translate(222,338)"/>
<path d="M0 0 C0.66 0.33 1.32 0.66 2 1 C0.56547553 2.93976579 -0.87246817 4.87682931 -2.3125 6.8125 C-2.71662109 7.35970703 -3.12074219 7.90691406 -3.53710938 8.47070312 C-5.54284347 11.16132204 -7.5291298 13.72104205 -10 16 C-10.56862204 12.84098864 -10.77584056 10.13398754 -10 7 C-7.30576481 4.4019875 -4.29152797 2.74220762 -1 1 C-0.67 0.67 -0.34 0.34 0 0 Z " fill="#83D35F" transform="translate(367,328)"/>
<path d="M0 0 C0.33 0 0.66 0 1 0 C2.3673566 7.57991159 1.86336464 14.18481586 0.1875 21.625 C0.00993164 22.41890137 -0.16763672 23.21280273 -0.35058594 24.03076172 C-1.72121658 29.72121658 -1.72121658 29.72121658 -4 32 C-4.24181815 27.0024249 -4.16770579 23.00327929 -2.5625 18.25 C-0.56159399 12.26615845 -0.28489917 6.26778163 0 0 Z " fill="#85D064" transform="translate(155,300)"/>
<path d="M0 0 C1.60246582 0.03927612 1.60246582 0.03927612 3.23730469 0.0793457 C4.97753906 0.10351562 4.97753906 0.10351562 6.75292969 0.12817383 C7.95949219 0.17006836 9.16605469 0.21196289 10.40917969 0.25512695 C12.24222656 0.28896484 12.24222656 0.28896484 14.11230469 0.32348633 C17.12916471 0.38240938 20.14355483 0.4646343 23.15917969 0.56762695 C23.15917969 0.89762695 23.15917969 1.22762695 23.15917969 1.56762695 C22.48862549 1.61250244 21.81807129 1.65737793 21.12719727 1.70361328 C18.07424478 1.91559087 15.02313698 2.1476524 11.97167969 2.38012695 C10.91658203 2.45038086 9.86148437 2.52063477 8.77441406 2.59301758 C7.75283203 2.67358398 6.73125 2.75415039 5.67871094 2.8371582 C4.7413208 2.90523682 3.80393066 2.97331543 2.83813477 3.04345703 C-0.22058049 3.64193162 -2.20276011 4.957221 -4.84082031 6.56762695 C-5.50082031 6.23762695 -6.16082031 5.90762695 -6.84082031 5.56762695 C-3.66912327 0.73313094 -3.66912327 0.73313094 0 0 Z " fill="#82D35F" transform="translate(320.8408203125,444.432373046875)"/>
<path d="M0 0 C3.70751367 -0.20427691 7.41357472 -0.32794588 11.125 -0.4375 C12.17171875 -0.49615234 13.2184375 -0.55480469 14.296875 -0.61523438 C21.97181843 -0.78524894 21.97181843 -0.78524894 25.08105469 1.58935547 C26.57040725 3.32693346 27.83770129 5.03144771 29 7 C24.34477183 5.18963349 24.34477183 5.18963349 22.12597656 3.96923828 C19.74594902 2.88417749 17.83426157 2.60051065 15.234375 2.3671875 C14.34492188 2.28339844 13.45546875 2.19960938 12.5390625 2.11328125 C11.61867187 2.03464844 10.69828125 1.95601563 9.75 1.875 C8.34621094 1.74544922 8.34621094 1.74544922 6.9140625 1.61328125 C4.60992647 1.40167692 2.30537956 1.19751323 0 1 C0 0.67 0 0.34 0 0 Z " fill="#83D35F" transform="translate(166,445)"/>
<path d="M0 0 C-2 2 -2 2 -5.16455078 2.13525391 C-6.50851258 2.09292823 -7.85214734 2.0392693 -9.1953125 1.9765625 C-10.25647781 1.93902359 -10.25647781 1.93902359 -11.33908081 1.90072632 C-13.60153719 1.8184671 -15.86312806 1.7219031 -18.125 1.625 C-19.65751658 1.56676631 -21.19006881 1.5094629 -22.72265625 1.453125 C-26.4822698 1.31288005 -30.241169 1.15980243 -34 1 C-34 0.67 -34 0.34 -34 0 C-6.03040541 -1.60810811 -6.03040541 -1.60810811 0 0 Z " fill="#87CE67" transform="translate(153,409)"/>
<path d="M0 0 C1.25167969 0.05220703 2.50335938 0.10441406 3.79296875 0.15820312 C6.86228198 0.28706742 9.93120129 0.42199541 13 0.5625 C13 0.8925 13 1.2225 13 1.5625 C8.33732843 1.75465767 3.6744108 1.93339491 -0.98925781 2.09960938 C-2.57631279 2.1580764 -4.16323619 2.22023514 -5.75 2.28613281 C-8.02840213 2.3801169 -10.3069448 2.46089523 -12.5859375 2.5390625 C-13.29744965 2.57125885 -14.00896179 2.6034552 -14.74203491 2.6366272 C-16.49404733 2.6901313 -18.24868084 2.63524185 -20 2.5625 C-20.66 1.9025 -21.32 1.2425 -22 0.5625 C-14.61872749 -0.68308974 -7.45688144 -0.34252834 0 0 Z " fill="#87CE67" transform="translate(376,408.4375)"/>
<path d="M0 0 C0.33 0 0.66 0 1 0 C2.76595745 20.53191489 2.76595745 20.53191489 -1 30 C-1.33 30 -1.66 30 -2 30 C-2.125 22.375 -2.125 22.375 -1 19 C-0.85426942 17.52034074 -0.75336732 16.03596157 -0.68359375 14.55078125 C-0.64169922 13.70322266 -0.59980469 12.85566406 -0.55664062 11.98242188 C-0.49766602 10.66081055 -0.49766602 10.66081055 -0.4375 9.3125 C-0.39431641 8.41982422 -0.35113281 7.52714844 -0.30664062 6.60742188 C-0.20064647 4.40509892 -0.09857949 2.20266527 0 0 Z " fill="#87CE66" transform="translate(360,301)"/>
<path d="M0 0 C0.33 0 0.66 0 1 0 C1.06058594 0.95261719 1.12117187 1.90523438 1.18359375 2.88671875 C1.26738281 4.14097656 1.35117188 5.39523437 1.4375 6.6875 C1.51871094 7.92886719 1.59992188 9.17023438 1.68359375 10.44921875 C1.94550465 13.38844108 2.41568987 16.11740337 3 19 C3.11678799 21.67678073 3.0454506 24.31841457 3 27 C-2.48104083 18.77843875 -0.90960705 9.32961821 0 0 Z " fill="#83D260" transform="translate(146,303)"/>
<path d="M0 0 C4.05505062 7.24116182 4.2643451 13.87873098 4 22 C2.11644037 18.63591315 1.19961308 15.30568445 0.3125 11.5625 C0.04050781 10.45003906 -0.23148437 9.33757812 -0.51171875 8.19140625 C-0.9896371 5.06773194 -0.84019019 3.01679028 0 0 Z " fill="#85D063" transform="translate(352,311)"/>
<path d="M0 0 C1.12894876 0.93274109 2.25300876 1.87140122 3.375 2.8125 C4.00148437 3.33457031 4.62796875 3.85664063 5.2734375 4.39453125 C7 6 7 6 9 9 C7.68 9.33 6.36 9.66 5 10 C3.96704564 8.90716423 2.94892165 7.80029421 1.9375 6.6875 C1.36902344 6.07261719 0.80054688 5.45773437 0.21484375 4.82421875 C-0.38650391 3.92123047 -0.38650391 3.92123047 -1 3 C-0.67 2.01 -0.34 1.02 0 0 Z " fill="#7FD655" transform="translate(218,366)"/>
<path d="M0 0 C6.93 0.495 6.93 0.495 14 1 C14 1.33 14 1.66 14 2 C8.06 2.495 8.06 2.495 2 3 C1.34 2.01 0.68 1.02 0 0 Z " fill="#86CF65" transform="translate(119,420)"/>
<path d="M0 0 C3.16115776 1.36983503 3.9927092 1.9890638 6 5 C5.01 5.66 4.02 6.32 3 7 C1.68 5.02 0.36 3.04 -1 1 C-0.67 0.67 -0.34 0.34 0 0 Z " fill="#9EB589" transform="translate(225,375)"/>
</svg>
